<svg class="icon" viewBox="0 0 1024 1024" version="1.1" xmlns="http://www.w3.org/2000/svg" width="200" height="200"><path d="M517.2224 121.856v794.7264l341.504-193.1776V207.7184z" fill="#DCEDFF"/><path d="M521.2672 945.0496c-8.1408 0-16.2816-2.1504-23.5008-6.4512l-326.9632-193.1776a46.39232 46.39232 0 0 1-22.6816-39.7824V207.7184c0-21.9648 15.616-41.0112 37.12-45.312l326.9632-65.6384c6.0416-1.2288 12.1856-1.2288 18.2272 0l326.912 65.6384c21.504 4.3008 37.12 23.3984 37.12 45.312v497.9712c0 16.2816-8.704 31.488-22.6816 39.7824l-326.9632 193.1776a46.67392 46.67392 0 0 1-23.552 6.4z m-321.9456-242.2272l321.9456 190.2592 321.9456-190.2592V211.7632l-321.9456-64.6144-321.9456 64.6144v491.0592z m646.3488-1.4336z" fill="#5B90EF"/><path d="M671.3856 346.88H365.9264v51.2H493.056v287.744h51.2v-287.744h127.1296z" fill="#5B90EF"/></svg>
