<svg class="icon" viewBox="0 0 1024 1024" version="1.1" xmlns="http://www.w3.org/2000/svg" width="200" height="200"><path d="M179.47288 32.813393C141.104366-11.949874 70.762091-11.949874 38.788329 39.208145c-44.763266 76.737028-70.342275 204.632074 76.737028 370.895634 223.816331 243.000588 594.711964 645.869983 844.107304 530.764441 70.342275-31.973762 83.13178-127.895046 19.184257-179.053065L908.474643 704.262385c-44.763266-31.973762-102.316037-44.763266-147.079303-19.184257-51.158018 25.579009-115.105542 19.184257-204.632074-12.789505C499.210495 653.104366 448.052477 614.735852 384.104954 544.393577 313.762679 461.261797 237.025651 352.551008 281.788917 256.629723c0 0 0 0 0 0 19.184257-31.973762 12.789505-70.342275-6.394752-102.316037L179.47288 32.813393z"/></svg>
