<svg class="icon" viewBox="0 0 1024 1024" version="1.1" xmlns="http://www.w3.org/2000/svg" width="200" height="200"><path d="M887.679035 468.863988l-77.602129-26.27241-33.628684-68.965075a46.305122 46.305122 0 0 0-41.379045-25.878323H555.661461a46.239441 46.239441 0 0 0-41.346205 25.878323l-33.661525 68.965075-77.569289 26.27241a68.965075 68.965075 0 0 0-47.027613 65.418299v277.79789a45.976717 45.976717 0 0 0 45.976717 45.976717H888.664251a45.976717 45.976717 0 0 0 45.976716-45.976717v-277.79789a68.965075 68.965075 0 0 0-46.961932-65.418299z" fill="#9FD4FF"/><path d="M526.794651 701.374812a167.059684 167.059684 0 1 1 167.059683-167.026844 167.256727 167.256727 0 0 1-167.059683 167.026844z m0-266.763478a99.736634 99.736634 0 1 0 99.703794 99.736634 99.867997 99.867997 0 0 0-99.703794-99.736634z" fill="#333333"/><path d="M137.437542 894.017254A68.472467 68.472467 0 0 1 68.965075 825.610468V385.284885a104.826914 104.826914 0 0 1 71.526635-99.408229l124.793945-41.970174 54.121163-111.165133A68.965075 68.965075 0 0 1 380.949937 94.28511h284.333152a68.965075 68.965075 0 0 1 61.477438 38.456239l54.154004 111.165133 124.793945 41.970174a104.826914 104.826914 0 0 1 71.428114 99.408229v440.358423a68.505308 68.505308 0 0 1-68.406787 68.406787H137.437542zM316.845258 283.906225a32.413585 32.413585 0 0 1-18.554889 16.420256L160.918508 346.43456a40.984959 40.984959 0 0 0-27.947276 38.883166v444.824733h780.290562V385.284885a40.984959 40.984959 0 0 0-27.947276-38.850325l-137.470382-46.239441a32.249383 32.249383 0 0 1-18.522049-16.420256l-61.214714-125.614958h-290.01456z" fill="#333333"/></svg>
